Coordinates
version=1
nRows=12
nColumns=48
inDegrees=yes

Units are S.I. units (second, meters, Newtons, ...)
Angles are in degrees.

endheader
time	pelvis_tilt	pelvis_list	pelvis_rotation	pelvis_tx	pelvis_ty	pelvis_tz	hip_flexion_r	hip_adduction_r	hip_rotation_r	knee_angle_r	knee_adduction_r	knee_rotation_r	knee_anterior_posterior_r	knee_inferior_superior_r	knee_medial_lateral_r	ankle_angle_r	subtalar_angle_r	mtp_angle_r	hip_flexion_l	hip_adduction_l	hip_rotation_l	knee_angle_l	knee_adduction_l	knee_rotation_l	knee_anterior_posterior_l	knee_inferior_superior_l	knee_medial_lateral_l	ankle_angle_l	subtalar_angle_l	mtp_angle_l	lumbar_extension	lumbar_bending	lumbar_rotation	arm_flex_r	arm_add_r	arm_rot_r	elbow_flex_r	pro_sup_r	wrist_flex_r	wrist_dev_r	arm_flex_l	arm_add_l	arm_rot_l	elbow_flex_l	pro_sup_l	wrist_flex_l	wrist_dev_l
      1.79000000	     11.06050105	      6.19119890	      0.06235630	     -0.43932497	      0.96404726	      0.20869631	     23.64671990	     -4.47562500	     -1.16158274	    -40.81736543	      0.98440452	      4.11446608	      0.01437557	     -0.40000000	      0.00000000	    -10.91788240	      0.00000000	      0.00000000	     25.55314157	      2.44909619	    -14.85024210	   -119.94004179	      0.98440452	      4.11446608	      0.00000000	     -0.40000000	      0.00000000	    -12.92218926	      0.00000000	      0.00000000	    -31.78632886	      0.51217937	      1.83860622	    -25.49558308	    -26.86866013	      5.22576733	     60.56386995	     82.34251715	      0.00000000	      0.00000000	    -26.39365194	    -20.81023972	     12.52692646	     78.03587033	     75.85463122	      0.00000000	      0.00000000
      1.80000000	     11.32718814	      4.25354655	      0.11236724	     -0.43101409	      0.95142343	      0.21095663	     25.55241392	     -1.54084538	     -0.01567165	    -45.35533427	      0.98440452	      4.11446608	      0.01364535	     -0.40000000	      0.00000000	     -8.60499864	      0.00000000	      0.00000000	     26.46664887	     -0.09469567	    -13.68139976	   -119.93347087	      0.98440452	      4.11446608	      0.00000000	     -0.40000000	      0.00000000	    -11.52996377	      0.00000000	      0.00000000	    -32.18184232	      2.07028608	      2.83724301	    -23.76138743	    -27.32732419	      6.29878588	     57.55316901	     81.86003732	      0.00000000	      0.00000000	    -24.61736719	    -19.99196205	     12.94196862	     74.41102017	     75.89725500	      0.00000000	      0.00000000
      1.81000000	     11.41943540	      2.68674640	      0.39391825	     -0.42384319	      0.93897819	      0.21326152	     26.95417599	      0.75395342	      0.32716081	    -48.67760551	      0.98440452	      4.11446608	      0.01355061	     -0.40000000	      0.00000000	     -6.49300424	      0.00000000	      0.00000000	     28.03899429	     -2.19526398	    -12.36696319	   -119.92343817	      0.98440452	      4.11446608	      0.00000000	     -0.40000000	      0.00000000	    -10.21400901	      0.00000000	      0.00000000	    -32.47994008	      3.30091952	      3.26442088	    -21.58481807	    -27.87614052	      7.86985055	     54.59415597	     81.40182429	      0.00000000	      0.00000000	    -23.15311198	    -19.13993273	     12.65102799	     71.08923094	     76.20453451	      0.00000000	      0.00000000
      1.82000000	     10.86793934	      1.73690113	      0.73342386	     -0.41798669	      0.92619114	      0.21440670	     28.68672484	      1.99173093	     -0.29585481	    -51.21857374	      0.98440452	      4.11446608	      0.01434173	     -0.40000000	      0.00000000	     -4.26746110	      0.00000000	      0.00000000	     30.62671516	     -3.33249642	    -11.38750716	   -119.90501079	      0.98440452	      4.11446608	      0.00000000	     -0.40000000	      0.00000000	     -8.71425253	      0.00000000	      0.00000000	    -32.09561101	      4.00727420	      2.88613378	    -18.76977012	    -28.62937811	     10.42719321	     51.58257881	     79.90271064	      0.00000000	      0.00000000	    -22.12530015	    -17.93383063	     11.46585262	     67.69019446	     78.12921564	      0.00000000	      0.00000000
      1.83000000	     10.03663206	      1.12785889	      1.30702884	     -0.41291132	      0.91335579	      0.21508306	     30.66053876	      2.77587112	     -0.70518071	    -53.64753628	      0.98440452	      4.11446608	      0.01477837	     -0.40000000	      0.00000000	     -1.85274991	      0.00000000	      0.00000000	     33.68244851	     -3.72029931	    -10.34226846	   -119.86794713	      0.98440452	      4.11446608	      0.00000000	     -0.40000000	      0.00000000	     -6.85289875	      0.00000000	      0.00000000	    -31.39968141	      4.49839267	      2.27230836	    -16.61551325	    -28.97381789	     11.44830235	     49.43812368	     80.09655867	      0.00000000	      0.00000000	    -21.14676243	    -17.19332860	     10.82429601	     64.79971007	     78.33691300	      0.00000000	      0.00000000
      1.84000000	      9.27868041	      0.51556023	      2.23324621	     -0.40795783	      0.90135953	      0.21559499	     32.59908120	      3.33271240	     -1.36700073	    -56.01270783	      0.98440452	      4.11446608	      0.01499429	     -0.40000000	      0.00000000	     -0.23074359	      0.00000000	      0.00000000	     36.72130223	     -3.80623462	     -8.91477130	   -119.75341996	      0.98440452	      4.11446608	      0.00000000	     -0.40000000	      0.00000000	     -5.31336915	      0.00000000	      0.00000000	    -30.74435476	      5.11901771	      1.44450702	    -14.90656405	    -29.05809320	     11.63798811	     48.00360623	     80.22626729	      0.00000000	      0.00000000	    -20.30716470	    -16.60968881	     10.23333609	     62.23849834	     78.36841208	      0.00000000	      0.00000000
      1.85000000	      9.01795087	      0.35840485	      2.92819596	     -0.40258691	      0.89159418	      0.21612760	     33.93831315	      3.59853091	     -1.64895943	    -58.29906998	      0.98440452	      4.11446608	      0.01511962	     -0.40000000	      0.00000000	      0.96496811	      0.00000000	      0.00000000	     38.83998189	     -3.57721989	     -8.04808183	   -119.10271400	      0.98440452	      4.11446608	      0.00000000	     -0.40000000	      0.00000000	     -4.46821549	      0.00000000	      0.00000000	    -30.62269574	      5.26511998	      0.62728816	    -13.55988625	    -29.23926722	     11.71386387	     47.39646509	     80.42138493	      0.00000000	      0.00000000	    -19.38063376	    -15.96742754	      9.62458677	     59.42338031	     78.18736003	      0.00000000	      0.00000000
      1.86000000	      8.62601187	      0.40260693	      3.62945020	     -0.39758595	      0.88345124	      0.21614364	     35.26713433	      3.50421254	     -2.01349362	    -60.33750983	      0.98440452	      4.11446608	      0.01518012	     -0.40000000	      0.00000000	      2.25811550	      0.00000000	      0.00000000	     40.78943082	     -2.95882272	     -7.26613693	   -117.80157105	      0.98440452	      4.11446608	      0.00000000	     -0.40000000	      0.00000000	     -4.02173188	      0.00000000	      0.00000000	    -30.42132852	      5.27788327	     -0.05605593	    -12.45660288	    -29.44142255	     11.63315815	     47.08295816	     80.57798229	      0.00000000	      0.00000000	    -18.23359401	    -15.53526489	      9.54795119	     56.70672009	     77.98961295	      0.00000000	      0.00000000
      1.87000000	      8.51409350	      0.49424596	      4.03687818	     -0.39291358	      0.87723292	      0.21640054	     36.06309352	      3.39336787	     -2.21521271	    -61.99202431	      0.98440452	      4.11446608	      0.01521608	     -0.40000000	      0.00000000	      3.21125344	      0.00000000	      0.00000000	     42.18679368	     -2.55106008	     -6.79024307	   -116.24110069	      0.98440452	      4.11446608	      0.00000000	     -0.40000000	      0.00000000	     -3.70469569	      0.00000000	      0.00000000	    -30.58904415	      5.15368480	     -0.50414666	    -11.51032042	    -29.70494495	     11.41671203	     47.44166899	     79.23468102	      0.00000000	      0.00000000	    -16.87683674	    -15.26793650	     10.07880711	     54.00194007	     76.51190798	      0.00000000	      0.00000000
      1.88000000	      8.45534842	      0.27104305	      4.34859167	     -0.38831600	      0.87220864	      0.21690458	     36.67377193	      3.63202331	     -2.52876038	    -63.42424847	      0.98440452	      4.11446608	      0.01519274	     -0.40000000	      0.00000000	      4.46144087	      0.00000000	      0.00000000	     43.30570560	     -2.45233339	     -6.07573802	   -114.49485249	      0.98440452	      4.11446608	      0.00000000	     -0.40000000	      0.00000000	     -3.87974739	      0.00000000	      0.00000000	    -30.81295862	      5.36125893	     -0.13406064	    -11.66351659	    -29.48598026	      8.51548918	     48.46738987	     81.34845839	      0.00000000	      0.00000000	    -14.90436170	    -15.62142355	     12.58877898	     51.15266457	     74.94427955	      0.00000000	      0.00000000
      1.89000000	      8.58014875	      0.13182909	      4.07500973	     -0.38385066	      0.86868142	      0.21837908	     36.91330614	      4.17246960	     -2.27541378	    -64.52933330	      0.98440452	      4.11446608	      0.01515818	     -0.40000000	      0.00000000	      5.06932545	      0.00000000	      0.00000000	     43.86085901	     -2.81285442	     -5.80533718	   -112.50026452	      0.98440452	      4.11446608	      0.00000000	     -0.40000000	      0.00000000	     -4.16915483	      0.00000000	      0.00000000	    -31.30038737	      5.14506466	      0.24979277	    -10.97398161	    -29.83552692	      8.07767297	     49.36496461	     80.23911264	      0.00000000	      0.00000000	    -13.71081960	    -15.30475662	     12.82010408	     48.93531083	     73.81903657	      0.00000000	      0.00000000
      1.90000000	      8.64930717	      0.04140172	      3.29277193	     -0.37971916	      0.86576079	      0.22080276	     37.04521676	      5.05839236	     -1.48445092	    -65.40831516	      0.98440452	      4.11446608	      0.01512225	     -0.40000000	      0.00000000	      6.04413753	      0.00000000	      0.00000000	     44.26871924	     -3.64984082	     -5.94279142	   -110.41764704	      0.98440452	      4.11446608	      0.00000000	     -0.40000000	      0.00000000	     -4.94889471	      0.00000000	      0.00000000	    -31.78568072	      4.63710021	      1.33276970	    -10.96437877	    -29.74961750	      5.88127766	     50.86223548	     80.54119153	      0.00000000	      0.00000000	    -12.15676899	    -15.78586502	     15.05387461	     47.03704132	     72.37933169	      0.00000000	      0.00000000
